<?xml version="1.0" encoding="UTF-8" standalone="no"?>
<svg
   version="1.1"
   id="Layer_1"
   x="0px"
   y="0px"
   width="900"
   viewBox="0 0 900 900"
   enable-background="new 0 0 900 900"
   xml:space="preserve"
   height="900"
   xmlns="http://www.w3.org/2000/svg"
   xmlns:svg="http://www.w3.org/2000/svg"><defs
   id="defs4" />

<path
   fill="#f4f4f4"
   opacity="1"
   stroke="none"
   d="m 454.07831,768.2151 c -8.96809,-15.94106 -17.64836,-31.69105 -26.46626,-47.36352 -11.0104,-19.56926 -22.17611,-39.05111 -33.19378,-58.61631 -7.03286,-12.48908 -13.86504,-25.09106 -20.88477,-37.58758 -8.41259,-14.97607 -16.98157,-29.86433 -25.38248,-44.84687 -5.81744,-10.375 -11.38284,-20.89142 -17.2081,-31.26191 -8.48019,-15.09693 -17.15843,-30.0826 -25.62916,-45.18471 -7.27567,-12.97152 -14.3038,-26.08187 -21.5766,-39.05501 -9.85547,-17.58008 -19.89986,-35.05427 -29.74921,-52.63774 -7.20025,-12.85415 -14.11566,-25.86809 -21.34043,-38.70819 -9.28665,-16.50445 -18.80701,-32.87725 -28.12812,-49.36252 -6.05815,-10.71438 -11.89077,-21.55604 -17.91377,-32.29053 -8.27023,-14.73964 -16.67499,-29.40386 -24.92661,-44.15382 -5.80743,-10.38091 -11.37695,-20.89503 -17.19382,-31.27054 -8.79911,-15.6949 -17.76946,-31.29376 -26.57534,-46.9849 -6.88007,-12.25956 -13.58774,-24.61577 -20.43835,-36.89202 -3.098787,-5.55302 -6.291763,-11.05637 -9.569256,-16.50572 -2.129858,-3.54122 -1.929931,-4.74485 2.214026,-5.63457 11.67059,-2.50571 23.31315,-5.44324 35.12836,-6.8984 15.04161,-1.85251 30.24614,-3.359258 45.3725,-3.289673 17.36963,0.07991 34.62298,2.505963 51.72697,6.187213 24.83907,5.34605 48.23945,14.38373 70.07805,27.00486 13.46786,7.78344 25.75953,17.60212 38.57905,26.50733 8.77124,6.09304 12.36225,15.98963 17.79346,24.49235 9.91025,15.51475 19.491,31.24 29.20651,46.87909 10.71322,17.24504 21.43352,34.48569 32.13202,51.73987 9.41273,15.18053 18.78978,30.38318 28.20059,45.56491 10.76605,17.36795 21.51377,34.74744 32.3409,52.07727 9.46874,15.15573 19.04367,30.24507 28.5589,45.37175 12.89964,20.50716 25.73671,41.0539 38.69218,61.52574 17.23501,27.2344 34.60191,54.38536 51.82954,81.62445 13.74512,21.73294 27.42011,43.51086 40.98278,65.35783 1.93361,3.11472 2.20071,6.36491 -0.4945,9.84747 -10.33909,13.35947 -20.28284,27.02395 -30.53812,40.44939 -14.08419,18.43802 -28.38274,36.7123 -42.46616,55.15093 -11.08207,14.50918 -21.93309,29.19457 -32.96854,43.73959 -10.96747,14.45558 -22.02317,28.84436 -33.07986,43.23197 -1.33828,1.74152 -3.00913,2.87681 -4.53097,0.14846 -10.8026,-19.36701 -21.57371,-38.75149 -32.58163,-58.35594 z"
   id="path2"
   style="stroke-width:0.84044" />
<path
   fill="#a246d8"
   opacity="1"
   stroke="none"
   d="m 589.96953,100.16646 c 1.1498,-0.247887 2.29962,-0.712348 3.44947,-0.71275 77.88338,-0.02726 155.76681,-0.01722 234.0402,0.434065 0.38996,72.719675 0.36692,144.994915 0.41053,217.270145 0.008,13.62536 -3.37038,26.53784 -8.67612,38.85135 -6.41102,14.87862 -16.50676,27.14405 -29.22733,37.20139 -18.88394,14.93037 -40.5227,22.08845 -64.44574,22.17401 -43.00046,0.15384 -86.0019,0.0439 -129.00293,0.0429 -5.66876,-1.2e-4 -5.67189,-0.003 -5.67194,-5.67609 -7.8e-4,-73.53596 0.0813,-147.07205 -0.0406,-220.6078 -0.0492,-29.65947 -0.54374,-59.31821 -0.83556,-88.97728 z"
   id="path3"
   style="display:inline;stroke-width:0.84044" />

</svg>
